<svg xmlns="http://www.w3.org/2000/svg" xmlns:xlink="http://www.w3.org/1999/xlink" width="500" zoomAndPan="magnify" viewBox="0 0 375 374.999991" height="500" preserveAspectRatio="xMidYMid meet" version="1.0"><defs><clipPath id="2d366c7b85"><path d="M 0 80.246094 L 375 80.246094 L 375 294.746094 L 0 294.746094 Z M 0 80.246094 " clip-rule="nonzero"/></clipPath></defs><g clip-path="url(#2d366c7b85)"><path fill="#000000" d="M 1.335938 90.273438 L 121.652344 291.519531 C 122.847656 293.523438 125.007812 294.75 127.34375 294.75 C 129.675781 294.75 131.835938 293.523438 133.03125 291.519531 L 187.5 200.410156 L 241.96875 291.519531 C 243.167969 293.523438 245.328125 294.75 247.660156 294.75 C 249.988281 294.75 252.148438 293.523438 253.347656 291.519531 L 373.664062 90.273438 C 374.890625 88.222656 374.917969 85.675781 373.738281 83.597656 C 372.5625 81.523438 370.359375 80.242188 367.976562 80.242188 L 307.132812 80.242188 C 304.777344 80.242188 302.601562 81.488281 301.410156 83.515625 L 253.710938 164.839844 C 251.859375 167.996094 252.917969 172.054688 256.074219 173.910156 C 259.230469 175.761719 263.292969 174.703125 265.144531 171.546875 L 310.925781 93.5 L 356.289062 93.5 L 247.660156 275.203125 L 195.222656 187.496094 L 253.347656 90.273438 C 254.574219 88.222656 254.601562 85.675781 253.421875 83.597656 C 252.246094 81.523438 250.042969 80.242188 247.660156 80.242188 L 186.8125 80.242188 C 184.460938 80.242188 182.285156 81.488281 181.097656 83.515625 L 133.394531 164.839844 C 131.542969 167.996094 132.601562 172.054688 135.757812 173.910156 C 138.914062 175.761719 142.976562 174.703125 144.828125 171.546875 L 190.609375 93.5 L 235.972656 93.5 L 181.828125 184.0625 C 181.8125 184.089844 181.792969 184.121094 181.777344 184.148438 L 127.34375 275.203125 L 18.710938 93.5 L 116.191406 93.5 L 102.859375 118.007812 C 101.113281 121.222656 102.300781 125.25 105.515625 126.996094 C 108.730469 128.746094 112.757812 127.554688 114.507812 124.34375 L 133.164062 90.039062 C 134.28125 87.984375 134.234375 85.496094 133.039062 83.484375 C 131.84375 81.472656 129.679688 80.242188 127.34375 80.242188 L 7.027344 80.242188 C 4.640625 80.242188 2.4375 81.523438 1.257812 83.597656 C 0.0820312 85.675781 0.109375 88.222656 1.335938 90.273438 " fill-opacity="1" fill-rule="nonzero"/></g></svg>